<svg width="20" height="20" viewBox="0 0 20 20" fill="none" xmlns="http://www.w3.org/2000/svg">
<path d="M16.3668 2.79727C14.5664 0.992578 12.1687 0 9.6207 0C4.36133 0 0.0816406 4.27969 0.0816406 9.53906C0.0816406 11.2191 0.519922 12.8605 1.35352 14.3086L0 19.25L5.05742 17.9223C6.44961 18.6828 8.01797 19.0824 9.61641 19.0824H9.6207C14.8758 19.0824 19.25 14.8027 19.25 9.54336C19.25 6.99531 18.1672 4.60195 16.3668 2.79727ZM9.6207 17.4754C8.19414 17.4754 6.79766 17.093 5.58164 16.3711L5.29375 16.1992L2.29453 16.9855L3.09375 14.0594L2.90469 13.7586C2.10977 12.4953 1.69297 11.0387 1.69297 9.53906C1.69297 5.16914 5.25078 1.61133 9.625 1.61133C11.7434 1.61133 13.7328 2.43633 15.2281 3.93594C16.7234 5.43555 17.643 7.425 17.6387 9.54336C17.6387 13.9176 13.9906 17.4754 9.6207 17.4754ZM13.9691 11.5371C13.7328 11.4168 12.5598 10.841 12.3406 10.7637C12.1215 10.682 11.9625 10.6434 11.8035 10.884C11.6445 11.1246 11.1891 11.6574 11.0473 11.8207C10.9098 11.9797 10.768 12.0012 10.5316 11.8809C9.13086 11.1805 8.21133 10.6305 7.2875 9.04492C7.04258 8.62383 7.53242 8.65391 7.98789 7.74297C8.06523 7.58398 8.02656 7.44648 7.96641 7.32617C7.90625 7.20586 7.4293 6.03281 7.23164 5.55586C7.03828 5.0918 6.84063 5.15625 6.69453 5.14766C6.55703 5.13906 6.39805 5.13906 6.23906 5.13906C6.08008 5.13906 5.82227 5.19922 5.60312 5.43555C5.38398 5.67617 4.76953 6.25195 4.76953 7.425C4.76953 8.59805 5.62461 9.73242 5.74063 9.89141C5.86094 10.0504 7.4207 12.4566 9.81406 13.4922C11.3266 14.1453 11.9195 14.2012 12.6758 14.0895C13.1355 14.0207 14.0852 13.5137 14.2828 12.9551C14.4805 12.3965 14.4805 11.9195 14.4203 11.8207C14.3645 11.7133 14.2055 11.6531 13.9691 11.5371Z" fill="white"/>
</svg>
